<mxfile host="65bd71144e">
    <diagram id="GFclDaCIk4YAcfMqffFD" name="Page-1">
        <mxGraphModel dx="2007" dy="1396" grid="1" gridSize="10" guides="1" tooltips="1" connect="1" arrows="1" fold="1" page="1" pageScale="1" pageWidth="850" pageHeight="1100" math="0" shadow="0">
            <root>
                <mxCell id="0"/>
                <mxCell id="1" parent="0"/>
                <mxCell id="2" value="" style="strokeWidth=1;shadow=0;dashed=0;align=center;html=1;shape=mxgraph.mockup.containers.browserWindow;rSize=0;strokeColor=#666666;strokeColor2=#008cff;strokeColor3=#c4c4c4;mainText=,;recursiveResize=0;" parent="1" vertex="1">
                    <mxGeometry x="210" y="480" width="850" height="1400" as="geometry"/>
                </mxCell>
                <mxCell id="3" value="Gamestopia" style="strokeWidth=1;shadow=0;dashed=0;align=center;html=1;shape=mxgraph.mockup.containers.anchor;fontSize=17;fontColor=#666666;align=left;" parent="2" vertex="1">
                    <mxGeometry x="60" y="12" width="170" height="26" as="geometry"/>
                </mxCell>
                <mxCell id="4" value="https://www.draw.io" style="strokeWidth=1;shadow=0;dashed=0;align=center;html=1;shape=mxgraph.mockup.containers.anchor;rSize=0;fontSize=17;fontColor=#666666;align=left;" parent="2" vertex="1">
                    <mxGeometry x="130" y="60" width="250" height="26" as="geometry"/>
                </mxCell>
                <mxCell id="556" value="Game Img" style="rounded=0;whiteSpace=wrap;html=1;strokeColor=none;fontSize=15;fontColor=#333333;fillColor=#f5f5f5;" parent="2" vertex="1">
                    <mxGeometry x="70" y="300" width="450" height="230" as="geometry"/>
                </mxCell>
                <mxCell id="557" value="&lt;div style=&quot;font-size: 18px;&quot;&gt;&lt;b style=&quot;&quot;&gt;&lt;font style=&quot;font-size: 18px;&quot;&gt;&lt;span style=&quot;background-color: initial;&quot;&gt;Game&amp;nbsp;&lt;/span&gt;&lt;span style=&quot;background-color: initial;&quot;&gt;Title&lt;/span&gt;&lt;/font&gt;&lt;/b&gt;&lt;/div&gt;&lt;div style=&quot;font-size: 18px;&quot;&gt;&lt;span style=&quot;background-color: initial;&quot;&gt;&lt;font color=&quot;#808080&quot; style=&quot;font-size: 13px;&quot;&gt;Platform&lt;/font&gt;&lt;/span&gt;&lt;/div&gt;" style="text;html=1;strokeColor=none;fillColor=none;align=left;verticalAlign=middle;whiteSpace=wrap;rounded=0;fontSize=15;fontColor=#000000;" parent="2" vertex="1">
                    <mxGeometry x="557.36" y="310" width="120" height="40" as="geometry"/>
                </mxCell>
                <mxCell id="559" value="Genre&amp;nbsp; &lt;u&gt;Sports&lt;/u&gt;" style="text;html=1;strokeColor=none;fillColor=none;align=left;verticalAlign=middle;whiteSpace=wrap;rounded=0;fontSize=14;fontColor=#000000;" parent="2" vertex="1">
                    <mxGeometry x="557.3599999999999" y="360" width="113.36" height="30" as="geometry"/>
                </mxCell>
                <mxCell id="560" value="Rent" style="rounded=1;whiteSpace=wrap;html=1;fontSize=14;" parent="2" vertex="1">
                    <mxGeometry x="557.36" y="480" width="180" height="30" as="geometry"/>
                </mxCell>
                <mxCell id="561" value="&lt;div style=&quot;line-height: 140%;&quot;&gt;&lt;span style=&quot;background-color: initial;&quot;&gt;CONTENT DESCRIPTORS&lt;/span&gt;&lt;br&gt;&lt;/div&gt;&lt;div style=&quot;line-height: 140%;&quot;&gt;&amp;nbsp;· Blood&lt;/div&gt;&lt;div style=&quot;line-height: 140%;&quot;&gt;&amp;nbsp;· Language&lt;/div&gt;&lt;div style=&quot;line-height: 140%;&quot;&gt;&amp;nbsp;· Suggestive Themes&lt;/div&gt;&lt;div style=&quot;line-height: 140%;&quot;&gt;&amp;nbsp;· Violence&lt;/div&gt;&lt;div style=&quot;line-height: 140%;&quot;&gt;&amp;nbsp;· Use of Alcohol&lt;/div&gt;" style="text;html=1;strokeColor=none;fillColor=none;align=left;verticalAlign=middle;whiteSpace=wrap;rounded=0;fontSize=14;spacing=2;" parent="2" vertex="1">
                    <mxGeometry x="150" y="550" width="190" height="132" as="geometry"/>
                </mxCell>
                <mxCell id="562" value="Description" style="text;html=1;strokeColor=none;fillColor=none;align=left;verticalAlign=middle;whiteSpace=wrap;rounded=0;fontSize=16;fontStyle=1" parent="2" vertex="1">
                    <mxGeometry x="70" y="731" width="120" height="32" as="geometry"/>
                </mxCell>
                <mxCell id="563" value="" style="verticalLabelPosition=bottom;shadow=0;dashed=0;align=center;html=1;verticalAlign=top;strokeWidth=1;shape=mxgraph.mockup.markup.line;strokeColor=#999999;fontSize=14;" parent="2" vertex="1">
                    <mxGeometry x="30" y="691" width="790" height="22" as="geometry"/>
                </mxCell>
                <mxCell id="566" value="&lt;span style=&quot;&quot;&gt;Lorem ipsum dolor sit amet, consectetur adipisicing elit, sed do eiusmod tempor incididunt ut labore et dolore magna aliqua.&lt;/span&gt;&lt;span style=&quot;&quot;&gt;Lorem ipsum dolor sit amet, consectetur adipisicing elit, sed do eiusmod tempor incididunt ut labore et dolore magna aliqua.&lt;/span&gt;&lt;span style=&quot;&quot;&gt;Lorem ipsum dolor sit amet, consectetur adipisicing elit, sed do eiusmod tempor incididunt ut labore et dolore magna aliqua.&lt;/span&gt;&lt;span style=&quot;&quot;&gt;Lorem ipsum dolor sit amet, consectetur adipisicing elit, sed do eiusmod tempor incididunt ut labore et dolore magna aliqua.&lt;/span&gt;" style="text;html=1;strokeColor=none;fillColor=none;align=left;verticalAlign=middle;whiteSpace=wrap;rounded=0;fontSize=14;" parent="2" vertex="1">
                    <mxGeometry x="70" y="761" width="690" height="112" as="geometry"/>
                </mxCell>
                <mxCell id="567" value="&lt;div style=&quot;border-color: var(--border-color); font-size: 14px; text-align: left; line-height: 140%;&quot;&gt;INTERACTIVE ELEMENTS&lt;/div&gt;&lt;div style=&quot;border-color: var(--border-color); font-size: 14px; text-align: left; line-height: 140%;&quot;&gt;&amp;nbsp;· In-Game Purchases&lt;/div&gt;&lt;div style=&quot;border-color: var(--border-color); font-size: 14px; text-align: left; line-height: 140%;&quot;&gt;&amp;nbsp;· Users Interact&lt;/div&gt;" style="text;html=1;strokeColor=none;fillColor=none;align=center;verticalAlign=middle;whiteSpace=wrap;rounded=0;fontSize=18;spacing=2;" parent="2" vertex="1">
                    <mxGeometry x="340" y="550" width="190" height="72" as="geometry"/>
                </mxCell>
                <mxCell id="569" value="&lt;img style=&quot;box-sizing: border-box; -webkit-tap-highlight-color: transparent; object-fit: none; width: 60px; height: 81px; font-family: Mukta, Roboto, &amp;quot;Helvetica Neue&amp;quot;, sans-serif; font-size: medium; text-align: start; background-color: rgb(249, 249, 249); object-position: -215px -96px;&quot; alt=&quot;ESRB Rated T: Teen&quot; src=&quot;https://www.gamefly.com/assets/images/ratings/sprite-esrb.png&quot;&gt;" style="text;html=1;strokeColor=none;fillColor=none;align=center;verticalAlign=middle;whiteSpace=wrap;rounded=0;fontSize=18;" parent="2" vertex="1">
                    <mxGeometry x="70" y="560" width="60" height="80" as="geometry"/>
                </mxCell>
                <mxCell id="570" value="Publisher&amp;nbsp; &lt;u&gt;EA&lt;/u&gt;" style="text;html=1;strokeColor=none;fillColor=none;align=left;verticalAlign=middle;whiteSpace=wrap;rounded=0;fontSize=14;fontColor=#000000;" parent="2" vertex="1">
                    <mxGeometry x="557.3599999999999" y="390" width="113.36" height="30" as="geometry"/>
                </mxCell>
                <mxCell id="550" value="" style="group" parent="2" vertex="1" connectable="0">
                    <mxGeometry y="1190" width="850" height="210" as="geometry"/>
                </mxCell>
                <mxCell id="160" value="" style="rounded=0;whiteSpace=wrap;html=1;" parent="550" vertex="1">
                    <mxGeometry width="850" height="210" as="geometry"/>
                </mxCell>
                <mxCell id="153" value="&lt;b&gt;&lt;font style=&quot;font-size: 16px;&quot;&gt;Follow Us&lt;/font&gt;&lt;/b&gt;" style="text;html=1;align=left;verticalAlign=middle;whiteSpace=wrap;rounded=0;" parent="550" vertex="1">
                    <mxGeometry x="611" y="30" width="120" height="30" as="geometry"/>
                </mxCell>
                <mxCell id="154" value="" style="shape=image;html=1;verticalAlign=top;verticalLabelPosition=bottom;labelBackgroundColor=#ffffff;imageAspect=0;aspect=fixed;image=https://cdn2.iconfinder.com/data/icons/social-media-2285/512/1_Facebook_colored_svg_copy-128.png;fillColor=none;strokeColor=none;" parent="550" vertex="1">
                    <mxGeometry x="614" y="72.5" width="27.5" height="27.5" as="geometry"/>
                </mxCell>
                <mxCell id="155" value="" style="shape=image;html=1;verticalAlign=top;verticalLabelPosition=bottom;labelBackgroundColor=#ffffff;imageAspect=0;aspect=fixed;image=https://cdn3.iconfinder.com/data/icons/2018-social-media-logotypes/1000/2018_social_media_popular_app_logo_twitter-128.png;fillColor=none;strokeColor=none;" parent="550" vertex="1">
                    <mxGeometry x="659" y="72.5" width="27.5" height="27.5" as="geometry"/>
                </mxCell>
                <mxCell id="156" value="" style="shape=image;html=1;verticalAlign=top;verticalLabelPosition=bottom;labelBackgroundColor=#ffffff;imageAspect=0;aspect=fixed;image=https://cdn4.iconfinder.com/data/icons/social-media-flat-7/64/Social-media_Youtube-128.png;fillColor=none;strokeColor=none;" parent="550" vertex="1">
                    <mxGeometry x="702" y="71.25" width="30" height="30" as="geometry"/>
                </mxCell>
                <mxCell id="158" value="" style="dashed=0;outlineConnect=0;html=1;align=center;labelPosition=center;verticalLabelPosition=bottom;verticalAlign=top;shape=mxgraph.weblogos.instagram;fillColor=none;strokeColor=none;" parent="550" vertex="1">
                    <mxGeometry x="747" y="72.5" width="29" height="27.5" as="geometry"/>
                </mxCell>
                <mxCell id="399" value="" style="verticalLabelPosition=bottom;shadow=0;dashed=0;align=center;html=1;verticalAlign=top;strokeWidth=1;shape=mxgraph.mockup.markup.line;strokeColor=#999999;fontSize=16;fontColor=#000000;fillColor=#808080;" parent="550" vertex="1">
                    <mxGeometry x="68" y="150" width="710" height="20" as="geometry"/>
                </mxCell>
                <mxCell id="400" value="&lt;b&gt;&lt;font style=&quot;font-size: 16px;&quot;&gt;Support&lt;/font&gt;&lt;/b&gt;" style="text;html=1;align=left;verticalAlign=middle;whiteSpace=wrap;rounded=0;" parent="550" vertex="1">
                    <mxGeometry x="70" y="30" width="120" height="30" as="geometry"/>
                </mxCell>
                <mxCell id="401" value="&lt;span style=&quot;font-size: 16px;&quot;&gt;&lt;b&gt;Corporate&lt;/b&gt;&lt;/span&gt;" style="text;html=1;align=left;verticalAlign=middle;whiteSpace=wrap;rounded=0;" parent="550" vertex="1">
                    <mxGeometry x="250" y="30" width="120" height="30" as="geometry"/>
                </mxCell>
                <mxCell id="402" value="&lt;b&gt;&lt;font style=&quot;font-size: 16px;&quot;&gt;Legal&lt;/font&gt;&lt;/b&gt;" style="text;html=1;align=left;verticalAlign=middle;whiteSpace=wrap;rounded=0;" parent="550" vertex="1">
                    <mxGeometry x="431" y="30" width="120" height="30" as="geometry"/>
                </mxCell>
                <mxCell id="406" value="Privacy Policy" style="text;html=1;strokeColor=none;fillColor=none;align=left;verticalAlign=middle;whiteSpace=wrap;rounded=0;fontSize=13;fontColor=#000000;" parent="550" vertex="1">
                    <mxGeometry x="431" y="60" width="150" height="30" as="geometry"/>
                </mxCell>
                <mxCell id="407" value="Terms &amp;amp; Conditions" style="text;html=1;strokeColor=none;fillColor=none;align=left;verticalAlign=middle;whiteSpace=wrap;rounded=0;fontSize=13;fontColor=#000000;" parent="550" vertex="1">
                    <mxGeometry x="431" y="80" width="150" height="30" as="geometry"/>
                </mxCell>
                <mxCell id="408" value="About Us" style="text;html=1;strokeColor=none;fillColor=none;align=left;verticalAlign=middle;whiteSpace=wrap;rounded=0;fontSize=13;fontColor=#000000;" parent="550" vertex="1">
                    <mxGeometry x="250" y="60" width="150" height="30" as="geometry"/>
                </mxCell>
                <mxCell id="409" value="Our Store" style="text;html=1;strokeColor=none;fillColor=none;align=left;verticalAlign=middle;whiteSpace=wrap;rounded=0;fontSize=13;fontColor=#000000;" parent="550" vertex="1">
                    <mxGeometry x="250" y="80" width="150" height="30" as="geometry"/>
                </mxCell>
                <mxCell id="410" value="Contact Us" style="text;html=1;strokeColor=none;fillColor=none;align=left;verticalAlign=middle;whiteSpace=wrap;rounded=0;fontSize=13;fontColor=#000000;" parent="550" vertex="1">
                    <mxGeometry x="70" y="80" width="150" height="30" as="geometry"/>
                </mxCell>
                <mxCell id="411" value="FAQ" style="text;html=1;strokeColor=none;fillColor=none;align=left;verticalAlign=middle;whiteSpace=wrap;rounded=0;fontSize=13;fontColor=#000000;" parent="550" vertex="1">
                    <mxGeometry x="70" y="60" width="150" height="30" as="geometry"/>
                </mxCell>
                <mxCell id="412" value="Shipping &amp;amp; Return" style="text;html=1;strokeColor=none;fillColor=none;align=left;verticalAlign=middle;whiteSpace=wrap;rounded=0;fontSize=13;fontColor=#000000;" parent="550" vertex="1">
                    <mxGeometry x="70" y="101.25" width="150" height="30" as="geometry"/>
                </mxCell>
                <mxCell id="161" value="" style="group" parent="550" vertex="1" connectable="0">
                    <mxGeometry x="260" y="170" width="330" height="30" as="geometry"/>
                </mxCell>
                <mxCell id="145" value="&amp;nbsp;Copyright&amp;nbsp; &amp;nbsp; &amp;nbsp;2024 | Developed By &lt;i&gt;Team (2)&lt;/i&gt;" style="text;html=1;align=center;verticalAlign=middle;whiteSpace=wrap;rounded=0;" parent="161" vertex="1">
                    <mxGeometry width="330" height="30" as="geometry"/>
                </mxCell>
                <mxCell id="144" value="" style="strokeColor=#0f0f0f;verticalLabelPosition=bottom;shadow=0;dashed=0;verticalAlign=top;strokeWidth=1;html=1;shape=mxgraph.mockup.misc.copyrightIcon;perimeterSpacing=0;" parent="161" vertex="1">
                    <mxGeometry x="105" y="10" width="10" height="10" as="geometry"/>
                </mxCell>
                <mxCell id="415" value="" style="rounded=0;whiteSpace=wrap;html=1;fontSize=13;" parent="1" vertex="1">
                    <mxGeometry x="1100" y="590" width="360" height="1850" as="geometry"/>
                </mxCell>
                <mxCell id="428" value="" style="group" parent="1" vertex="1" connectable="0">
                    <mxGeometry x="1130" y="670" width="330" height="50" as="geometry"/>
                </mxCell>
                <mxCell id="429" value="" style="html=1;verticalLabelPosition=bottom;align=center;labelBackgroundColor=#ffffff;verticalAlign=top;strokeWidth=2;strokeColor=#000000;shadow=0;dashed=0;shape=mxgraph.ios7.icons.looking_glass;fontSize=15;fontColor=#000000;fillColor=none;" parent="428" vertex="1">
                    <mxGeometry x="270" y="4.939999999999998" width="20" height="20.12" as="geometry"/>
                </mxCell>
                <mxCell id="430" value="&amp;nbsp; Search" style="rounded=1;whiteSpace=wrap;html=1;strokeColor=#000000;fontSize=15;fontColor=#000000;fillColor=none;align=left;" parent="428" vertex="1">
                    <mxGeometry width="300" height="30" as="geometry"/>
                </mxCell>
                <mxCell id="431" value="" style="rounded=0;whiteSpace=wrap;html=1;strokeColor=default;fontSize=13;fontColor=#000000;fillColor=none;" parent="428" vertex="1">
                    <mxGeometry x="-30" y="-10" width="360" height="50" as="geometry"/>
                </mxCell>
                <mxCell id="492" value="" style="group" parent="1" vertex="1" connectable="0">
                    <mxGeometry x="1110" y="1680" width="340" height="70" as="geometry"/>
                </mxCell>
                <mxCell id="493" value="" style="verticalLabelPosition=bottom;shadow=0;dashed=0;align=center;html=1;verticalAlign=top;strokeWidth=1;shape=mxgraph.mockup.markup.line;strokeColor=#999999;fontSize=15;fontColor=#000000;fillColor=none;" parent="492" vertex="1">
                    <mxGeometry y="5" width="100" height="20" as="geometry"/>
                </mxCell>
                <mxCell id="494" value="You may also like" style="text;html=1;strokeColor=none;fillColor=none;align=center;verticalAlign=middle;whiteSpace=wrap;rounded=0;fontSize=15;fontColor=#000000;" parent="492" vertex="1">
                    <mxGeometry x="102" width="126.68" height="30" as="geometry"/>
                </mxCell>
                <mxCell id="495" value="" style="verticalLabelPosition=bottom;shadow=0;dashed=0;align=center;html=1;verticalAlign=top;strokeWidth=1;shape=mxgraph.mockup.markup.line;strokeColor=#999999;fontSize=15;fontColor=#000000;fillColor=none;" parent="492" vertex="1">
                    <mxGeometry x="230" y="5" width="110" height="20" as="geometry"/>
                </mxCell>
                <mxCell id="496" value="" style="group" parent="1" vertex="1" connectable="0">
                    <mxGeometry x="1130" y="1730" width="298" height="199" as="geometry"/>
                </mxCell>
                <mxCell id="497" value="" style="html=1;verticalLabelPosition=bottom;labelBackgroundColor=#ffffff;verticalAlign=top;shadow=0;dashed=0;strokeWidth=2;shape=mxgraph.ios7.misc.left;strokeColor=#000000;fontSize=15;fontColor=#000000;fillColor=none;container=0;" parent="496" vertex="1">
                    <mxGeometry y="67" width="6" height="12" as="geometry"/>
                </mxCell>
                <mxCell id="498" value="" style="html=1;verticalLabelPosition=bottom;labelBackgroundColor=#ffffff;verticalAlign=top;shadow=0;dashed=0;strokeWidth=2;shape=mxgraph.ios7.misc.right;strokeColor=#000000;fontSize=15;fontColor=#000000;fillColor=none;container=0;" parent="496" vertex="1">
                    <mxGeometry x="292" y="67" width="6" height="12" as="geometry"/>
                </mxCell>
                <mxCell id="499" value="&lt;font style=&quot;font-size: 14px;&quot;&gt;Rent&lt;/font&gt;" style="rounded=1;whiteSpace=wrap;html=1;fontSize=17;container=0;" parent="496" vertex="1">
                    <mxGeometry x="46.629999999999995" y="179" width="65" height="20" as="geometry"/>
                </mxCell>
                <mxCell id="500" value="Game Img" style="rounded=0;whiteSpace=wrap;html=1;strokeColor=none;fontSize=15;fontColor=#333333;fillColor=#f5f5f5;container=0;" parent="496" vertex="1">
                    <mxGeometry x="29.879999999999995" width="98.5" height="130" as="geometry"/>
                </mxCell>
                <mxCell id="501" value="Game Title" style="text;html=1;strokeColor=none;fillColor=none;align=center;verticalAlign=middle;whiteSpace=wrap;rounded=0;fontSize=15;fontColor=#000000;container=0;" parent="496" vertex="1">
                    <mxGeometry x="33.379999999999995" y="130" width="91.5" height="30" as="geometry"/>
                </mxCell>
                <mxCell id="502" value="Platform" style="text;html=1;strokeColor=none;fillColor=none;align=center;verticalAlign=middle;whiteSpace=wrap;rounded=0;fontSize=13;fontColor=#808080;container=0;" parent="496" vertex="1">
                    <mxGeometry x="33.379999999999995" y="150" width="91.5" height="30" as="geometry"/>
                </mxCell>
                <mxCell id="503" value="&lt;font style=&quot;font-size: 14px;&quot;&gt;Rent&lt;/font&gt;" style="rounded=1;whiteSpace=wrap;html=1;fontSize=17;container=0;" parent="496" vertex="1">
                    <mxGeometry x="185.75" y="179" width="65" height="20" as="geometry"/>
                </mxCell>
                <mxCell id="504" value="Game Img" style="rounded=0;whiteSpace=wrap;html=1;strokeColor=none;fontSize=15;fontColor=#333333;fillColor=#f5f5f5;container=0;" parent="496" vertex="1">
                    <mxGeometry x="169" width="98.5" height="130" as="geometry"/>
                </mxCell>
                <mxCell id="505" value="Game Title" style="text;html=1;strokeColor=none;fillColor=none;align=center;verticalAlign=middle;whiteSpace=wrap;rounded=0;fontSize=15;fontColor=#000000;container=0;" parent="496" vertex="1">
                    <mxGeometry x="172.5" y="130" width="91.5" height="30" as="geometry"/>
                </mxCell>
                <mxCell id="506" value="Platform" style="text;html=1;strokeColor=none;fillColor=none;align=center;verticalAlign=middle;whiteSpace=wrap;rounded=0;fontSize=13;fontColor=#808080;container=0;" parent="496" vertex="1">
                    <mxGeometry x="172.5" y="150" width="91.5" height="30" as="geometry"/>
                </mxCell>
                <mxCell id="551" value="" style="group" parent="1" vertex="1" connectable="0">
                    <mxGeometry x="1100" y="1980" width="360" height="460" as="geometry"/>
                </mxCell>
                <mxCell id="529" value="" style="rounded=0;whiteSpace=wrap;html=1;" parent="551" vertex="1">
                    <mxGeometry width="360" height="460" as="geometry"/>
                </mxCell>
                <mxCell id="530" value="&lt;b&gt;&lt;font style=&quot;font-size: 16px;&quot;&gt;Follow Us&lt;/font&gt;&lt;/b&gt;" style="text;html=1;align=left;verticalAlign=middle;whiteSpace=wrap;rounded=0;" parent="551" vertex="1">
                    <mxGeometry x="20" y="308.75" width="120" height="30" as="geometry"/>
                </mxCell>
                <mxCell id="531" value="" style="shape=image;html=1;verticalAlign=top;verticalLabelPosition=bottom;labelBackgroundColor=#ffffff;imageAspect=0;aspect=fixed;image=https://cdn2.iconfinder.com/data/icons/social-media-2285/512/1_Facebook_colored_svg_copy-128.png;fillColor=none;strokeColor=none;" parent="551" vertex="1">
                    <mxGeometry x="23" y="351.25" width="27.5" height="27.5" as="geometry"/>
                </mxCell>
                <mxCell id="532" value="" style="shape=image;html=1;verticalAlign=top;verticalLabelPosition=bottom;labelBackgroundColor=#ffffff;imageAspect=0;aspect=fixed;image=https://cdn3.iconfinder.com/data/icons/2018-social-media-logotypes/1000/2018_social_media_popular_app_logo_twitter-128.png;fillColor=none;strokeColor=none;" parent="551" vertex="1">
                    <mxGeometry x="68" y="351.25" width="27.5" height="27.5" as="geometry"/>
                </mxCell>
                <mxCell id="533" value="" style="shape=image;html=1;verticalAlign=top;verticalLabelPosition=bottom;labelBackgroundColor=#ffffff;imageAspect=0;aspect=fixed;image=https://cdn4.iconfinder.com/data/icons/social-media-flat-7/64/Social-media_Youtube-128.png;fillColor=none;strokeColor=none;" parent="551" vertex="1">
                    <mxGeometry x="111" y="350" width="30" height="30" as="geometry"/>
                </mxCell>
                <mxCell id="534" value="" style="dashed=0;outlineConnect=0;html=1;align=center;labelPosition=center;verticalLabelPosition=bottom;verticalAlign=top;shape=mxgraph.weblogos.instagram;fillColor=none;strokeColor=none;" parent="551" vertex="1">
                    <mxGeometry x="156" y="351.25" width="29" height="27.5" as="geometry"/>
                </mxCell>
                <mxCell id="536" value="&lt;b&gt;&lt;font style=&quot;font-size: 16px;&quot;&gt;Support&lt;/font&gt;&lt;/b&gt;" style="text;html=1;align=left;verticalAlign=middle;whiteSpace=wrap;rounded=0;" parent="551" vertex="1">
                    <mxGeometry x="20" y="20" width="120" height="30" as="geometry"/>
                </mxCell>
                <mxCell id="537" value="&lt;span style=&quot;font-size: 16px;&quot;&gt;&lt;b&gt;Corporate&lt;/b&gt;&lt;/span&gt;" style="text;html=1;align=left;verticalAlign=middle;whiteSpace=wrap;rounded=0;" parent="551" vertex="1">
                    <mxGeometry x="20" y="130" width="120" height="30" as="geometry"/>
                </mxCell>
                <mxCell id="538" value="&lt;b&gt;&lt;font style=&quot;font-size: 16px;&quot;&gt;Legal&lt;/font&gt;&lt;/b&gt;" style="text;html=1;align=left;verticalAlign=middle;whiteSpace=wrap;rounded=0;" parent="551" vertex="1">
                    <mxGeometry x="20" y="220" width="120" height="30" as="geometry"/>
                </mxCell>
                <mxCell id="539" value="Privacy Policy" style="text;html=1;strokeColor=none;fillColor=none;align=left;verticalAlign=middle;whiteSpace=wrap;rounded=0;fontSize=13;fontColor=#000000;" parent="551" vertex="1">
                    <mxGeometry x="20" y="250" width="150" height="30" as="geometry"/>
                </mxCell>
                <mxCell id="540" value="Terms &amp;amp; Conditions" style="text;html=1;strokeColor=none;fillColor=none;align=left;verticalAlign=middle;whiteSpace=wrap;rounded=0;fontSize=13;fontColor=#000000;" parent="551" vertex="1">
                    <mxGeometry x="20" y="270" width="150" height="30" as="geometry"/>
                </mxCell>
                <mxCell id="541" value="About Us" style="text;html=1;strokeColor=none;fillColor=none;align=left;verticalAlign=middle;whiteSpace=wrap;rounded=0;fontSize=13;fontColor=#000000;" parent="551" vertex="1">
                    <mxGeometry x="20" y="160" width="150" height="30" as="geometry"/>
                </mxCell>
                <mxCell id="542" value="Our Store" style="text;html=1;strokeColor=none;fillColor=none;align=left;verticalAlign=middle;whiteSpace=wrap;rounded=0;fontSize=13;fontColor=#000000;" parent="551" vertex="1">
                    <mxGeometry x="20" y="180" width="150" height="30" as="geometry"/>
                </mxCell>
                <mxCell id="543" value="Contact Us" style="text;html=1;strokeColor=none;fillColor=none;align=left;verticalAlign=middle;whiteSpace=wrap;rounded=0;fontSize=13;fontColor=#000000;" parent="551" vertex="1">
                    <mxGeometry x="20" y="70" width="150" height="30" as="geometry"/>
                </mxCell>
                <mxCell id="544" value="FAQ" style="text;html=1;strokeColor=none;fillColor=none;align=left;verticalAlign=middle;whiteSpace=wrap;rounded=0;fontSize=13;fontColor=#000000;" parent="551" vertex="1">
                    <mxGeometry x="20" y="50" width="150" height="30" as="geometry"/>
                </mxCell>
                <mxCell id="545" value="Shipping &amp;amp; Return" style="text;html=1;strokeColor=none;fillColor=none;align=left;verticalAlign=middle;whiteSpace=wrap;rounded=0;fontSize=13;fontColor=#000000;" parent="551" vertex="1">
                    <mxGeometry x="20" y="91.25" width="150" height="30" as="geometry"/>
                </mxCell>
                <mxCell id="546" value="" style="group;align=left;" parent="551" vertex="1" connectable="0">
                    <mxGeometry x="20" y="420" width="330" height="30" as="geometry"/>
                </mxCell>
                <mxCell id="547" value="&amp;nbsp;Copyright&amp;nbsp; &amp;nbsp; &amp;nbsp;2024 | Developed By &lt;i&gt;Team (2)&lt;/i&gt;" style="text;html=1;align=left;verticalAlign=middle;whiteSpace=wrap;rounded=0;" parent="546" vertex="1">
                    <mxGeometry width="330" height="30" as="geometry"/>
                </mxCell>
                <mxCell id="548" value="" style="strokeColor=#0f0f0f;verticalLabelPosition=bottom;shadow=0;dashed=0;verticalAlign=top;strokeWidth=1;html=1;shape=mxgraph.mockup.misc.copyrightIcon;perimeterSpacing=0;align=left;" parent="546" vertex="1">
                    <mxGeometry x="60" y="10" width="10" height="10" as="geometry"/>
                </mxCell>
                <mxCell id="535" value="" style="verticalLabelPosition=bottom;shadow=0;dashed=0;align=center;html=1;verticalAlign=top;strokeWidth=1;shape=mxgraph.mockup.markup.line;strokeColor=#999999;fontSize=16;fontColor=#000000;fillColor=#808080;" parent="546" vertex="1">
                    <mxGeometry y="-20" width="320" height="20" as="geometry"/>
                </mxCell>
                <mxCell id="571" value="" style="group" parent="1" vertex="1" connectable="0">
                    <mxGeometry x="270" y="1420" width="726" height="199" as="geometry"/>
                </mxCell>
                <mxCell id="574" value="" style="group" parent="571" vertex="1" connectable="0">
                    <mxGeometry x="58.25" width="98.5" height="199" as="geometry"/>
                </mxCell>
                <mxCell id="575" value="&lt;font style=&quot;font-size: 14px;&quot;&gt;Rent&lt;/font&gt;" style="rounded=1;whiteSpace=wrap;html=1;fontSize=17;" parent="574" vertex="1">
                    <mxGeometry x="16.75" y="179" width="65" height="20" as="geometry"/>
                </mxCell>
                <mxCell id="576" value="Game Img" style="rounded=0;whiteSpace=wrap;html=1;strokeColor=none;fontSize=15;fontColor=#333333;fillColor=#f5f5f5;" parent="574" vertex="1">
                    <mxGeometry width="98.5" height="130" as="geometry"/>
                </mxCell>
                <mxCell id="577" value="Game Title" style="text;html=1;strokeColor=none;fillColor=none;align=center;verticalAlign=middle;whiteSpace=wrap;rounded=0;fontSize=15;fontColor=#000000;" parent="574" vertex="1">
                    <mxGeometry x="3.5" y="130" width="91.5" height="30" as="geometry"/>
                </mxCell>
                <mxCell id="578" value="Platform" style="text;html=1;strokeColor=none;fillColor=none;align=center;verticalAlign=middle;whiteSpace=wrap;rounded=0;fontSize=13;fontColor=#808080;" parent="574" vertex="1">
                    <mxGeometry x="3.5" y="150" width="91.5" height="30" as="geometry"/>
                </mxCell>
                <mxCell id="579" value="" style="group" parent="571" vertex="1" connectable="0">
                    <mxGeometry x="555.5" width="98.5" height="199" as="geometry"/>
                </mxCell>
                <mxCell id="580" value="&lt;font style=&quot;font-size: 14px;&quot;&gt;Rent&lt;/font&gt;" style="rounded=1;whiteSpace=wrap;html=1;fontSize=17;" parent="579" vertex="1">
                    <mxGeometry x="16.75" y="179" width="65" height="20" as="geometry"/>
                </mxCell>
                <mxCell id="581" value="Game Img" style="rounded=0;whiteSpace=wrap;html=1;strokeColor=none;fontSize=15;fontColor=#333333;fillColor=#f5f5f5;" parent="579" vertex="1">
                    <mxGeometry width="98.5" height="130" as="geometry"/>
                </mxCell>
                <mxCell id="582" value="Game Title" style="text;html=1;strokeColor=none;fillColor=none;align=center;verticalAlign=middle;whiteSpace=wrap;rounded=0;fontSize=15;fontColor=#000000;" parent="579" vertex="1">
                    <mxGeometry x="3.5" y="130" width="91.5" height="30" as="geometry"/>
                </mxCell>
                <mxCell id="583" value="Platform" style="text;html=1;strokeColor=none;fillColor=none;align=center;verticalAlign=middle;whiteSpace=wrap;rounded=0;fontSize=13;fontColor=#808080;" parent="579" vertex="1">
                    <mxGeometry x="3.5" y="150" width="91.5" height="30" as="geometry"/>
                </mxCell>
                <mxCell id="584" value="" style="group" parent="571" vertex="1" connectable="0">
                    <mxGeometry x="224" width="98.5" height="199" as="geometry"/>
                </mxCell>
                <mxCell id="585" value="&lt;font style=&quot;font-size: 14px;&quot;&gt;Rent&lt;/font&gt;" style="rounded=1;whiteSpace=wrap;html=1;fontSize=17;" parent="584" vertex="1">
                    <mxGeometry x="16.75" y="179" width="65" height="20" as="geometry"/>
                </mxCell>
                <mxCell id="586" value="Game Img" style="rounded=0;whiteSpace=wrap;html=1;strokeColor=none;fontSize=15;fontColor=#333333;fillColor=#f5f5f5;" parent="584" vertex="1">
                    <mxGeometry width="98.5" height="130" as="geometry"/>
                </mxCell>
                <mxCell id="587" value="Game Title" style="text;html=1;strokeColor=none;fillColor=none;align=center;verticalAlign=middle;whiteSpace=wrap;rounded=0;fontSize=15;fontColor=#000000;" parent="584" vertex="1">
                    <mxGeometry x="3.5" y="130" width="91.5" height="30" as="geometry"/>
                </mxCell>
                <mxCell id="588" value="Platform" style="text;html=1;strokeColor=none;fillColor=none;align=center;verticalAlign=middle;whiteSpace=wrap;rounded=0;fontSize=13;fontColor=#808080;" parent="584" vertex="1">
                    <mxGeometry x="3.5" y="150" width="91.5" height="30" as="geometry"/>
                </mxCell>
                <mxCell id="589" value="" style="group" parent="571" vertex="1" connectable="0">
                    <mxGeometry x="390" width="98.5" height="199" as="geometry"/>
                </mxCell>
                <mxCell id="590" value="&lt;font style=&quot;font-size: 14px;&quot;&gt;Rent&lt;/font&gt;" style="rounded=1;whiteSpace=wrap;html=1;fontSize=17;" parent="589" vertex="1">
                    <mxGeometry x="16.75" y="179" width="65" height="20" as="geometry"/>
                </mxCell>
                <mxCell id="591" value="Game Img" style="rounded=0;whiteSpace=wrap;html=1;strokeColor=none;fontSize=15;fontColor=#333333;fillColor=#f5f5f5;" parent="589" vertex="1">
                    <mxGeometry width="98.5" height="130" as="geometry"/>
                </mxCell>
                <mxCell id="592" value="Game Title" style="text;html=1;strokeColor=none;fillColor=none;align=center;verticalAlign=middle;whiteSpace=wrap;rounded=0;fontSize=15;fontColor=#000000;" parent="589" vertex="1">
                    <mxGeometry x="3.5" y="130" width="91.5" height="30" as="geometry"/>
                </mxCell>
                <mxCell id="593" value="Platform" style="text;html=1;strokeColor=none;fillColor=none;align=center;verticalAlign=middle;whiteSpace=wrap;rounded=0;fontSize=13;fontColor=#808080;" parent="589" vertex="1">
                    <mxGeometry x="3.5" y="150" width="91.5" height="30" as="geometry"/>
                </mxCell>
                <mxCell id="594" value="" style="group" parent="1" vertex="1" connectable="0">
                    <mxGeometry x="239" y="1370" width="792" height="70" as="geometry"/>
                </mxCell>
                <mxCell id="595" value="" style="verticalLabelPosition=bottom;shadow=0;dashed=0;align=center;html=1;verticalAlign=top;strokeWidth=1;shape=mxgraph.mockup.markup.line;strokeColor=#999999;fontSize=15;fontColor=#000000;fillColor=none;" parent="594" vertex="1">
                    <mxGeometry y="5" width="310" height="20" as="geometry"/>
                </mxCell>
                <mxCell id="596" value="You may also like" style="text;html=1;strokeColor=none;fillColor=none;align=center;verticalAlign=middle;whiteSpace=wrap;rounded=0;fontSize=15;fontColor=#000000;" parent="594" vertex="1">
                    <mxGeometry x="295" width="200" height="30" as="geometry"/>
                </mxCell>
                <mxCell id="597" value="" style="verticalLabelPosition=bottom;shadow=0;dashed=0;align=center;html=1;verticalAlign=top;strokeWidth=1;shape=mxgraph.mockup.markup.line;strokeColor=#999999;fontSize=15;fontColor=#000000;fillColor=none;" parent="594" vertex="1">
                    <mxGeometry x="482" y="5" width="310" height="20" as="geometry"/>
                </mxCell>
                <mxCell id="598" value="Game Img" style="rounded=0;whiteSpace=wrap;html=1;strokeColor=none;fontSize=15;fontColor=#333333;fillColor=#f5f5f5;" parent="1" vertex="1">
                    <mxGeometry x="1120" y="730" width="313.04" height="160" as="geometry"/>
                </mxCell>
                <mxCell id="599" value="&lt;div style=&quot;font-size: 18px;&quot;&gt;&lt;b style=&quot;&quot;&gt;&lt;font style=&quot;font-size: 18px;&quot;&gt;&lt;span style=&quot;background-color: initial;&quot;&gt;Game&amp;nbsp;&lt;/span&gt;&lt;span style=&quot;background-color: initial;&quot;&gt;Title&lt;/span&gt;&lt;/font&gt;&lt;/b&gt;&lt;/div&gt;&lt;div style=&quot;font-size: 18px;&quot;&gt;&lt;span style=&quot;background-color: initial;&quot;&gt;&lt;font color=&quot;#808080&quot; style=&quot;font-size: 13px;&quot;&gt;Platform&lt;/font&gt;&lt;/span&gt;&lt;/div&gt;" style="text;html=1;strokeColor=none;fillColor=none;align=left;verticalAlign=middle;whiteSpace=wrap;rounded=0;fontSize=15;fontColor=#000000;" parent="1" vertex="1">
                    <mxGeometry x="1130" y="920" width="120" height="40" as="geometry"/>
                </mxCell>
                <mxCell id="600" value="Genre&amp;nbsp; &lt;u&gt;Sports&lt;/u&gt;" style="text;html=1;strokeColor=none;fillColor=none;align=left;verticalAlign=middle;whiteSpace=wrap;rounded=0;fontSize=14;fontColor=#000000;" parent="1" vertex="1">
                    <mxGeometry x="1130" y="970" width="113.36" height="30" as="geometry"/>
                </mxCell>
                <mxCell id="601" value="Rent" style="rounded=1;whiteSpace=wrap;html=1;fontSize=14;" parent="1" vertex="1">
                    <mxGeometry x="1130" y="1060" width="180" height="30" as="geometry"/>
                </mxCell>
                <mxCell id="602" value="Publisher&amp;nbsp; &lt;u&gt;EA&lt;/u&gt;" style="text;html=1;strokeColor=none;fillColor=none;align=left;verticalAlign=middle;whiteSpace=wrap;rounded=0;fontSize=14;fontColor=#000000;" parent="1" vertex="1">
                    <mxGeometry x="1130" y="1000" width="113.36" height="30" as="geometry"/>
                </mxCell>
                <mxCell id="603" value="&lt;img style=&quot;box-sizing: border-box; -webkit-tap-highlight-color: transparent; object-fit: none; width: 60px; height: 81px; font-family: Mukta, Roboto, &amp;quot;Helvetica Neue&amp;quot;, sans-serif; font-size: medium; text-align: start; background-color: rgb(249, 249, 249); object-position: -215px -96px;&quot; alt=&quot;ESRB Rated T: Teen&quot; src=&quot;https://www.gamefly.com/assets/images/ratings/sprite-esrb.png&quot;&gt;" style="text;html=1;strokeColor=none;fillColor=none;align=center;verticalAlign=middle;whiteSpace=wrap;rounded=0;fontSize=18;" parent="1" vertex="1">
                    <mxGeometry x="1130" y="1135" width="60" height="80" as="geometry"/>
                </mxCell>
                <mxCell id="604" value="&lt;div style=&quot;line-height: 140%;&quot;&gt;&lt;span style=&quot;background-color: initial;&quot;&gt;CONTENT DESCRIPTORS&lt;/span&gt;&lt;br&gt;&lt;/div&gt;&lt;div style=&quot;line-height: 140%;&quot;&gt;&amp;nbsp;· Blood&lt;/div&gt;&lt;div style=&quot;line-height: 140%;&quot;&gt;&amp;nbsp;· Language&lt;/div&gt;&lt;div style=&quot;line-height: 140%;&quot;&gt;&amp;nbsp;· Suggestive Themes&lt;/div&gt;&lt;div style=&quot;line-height: 140%;&quot;&gt;&amp;nbsp;· Violence&lt;/div&gt;&lt;div style=&quot;line-height: 140%;&quot;&gt;&amp;nbsp;· Use of Alcohol&lt;/div&gt;" style="text;html=1;strokeColor=none;fillColor=none;align=left;verticalAlign=middle;whiteSpace=wrap;rounded=0;fontSize=14;spacing=2;" parent="1" vertex="1">
                    <mxGeometry x="1220" y="1120" width="190" height="132" as="geometry"/>
                </mxCell>
                <mxCell id="605" value="&lt;div style=&quot;border-color: var(--border-color); font-size: 14px; text-align: left; line-height: 140%;&quot;&gt;INTERACTIVE ELEMENTS&lt;/div&gt;&lt;div style=&quot;border-color: var(--border-color); font-size: 14px; text-align: left; line-height: 140%;&quot;&gt;&amp;nbsp;· In-Game Purchases&lt;/div&gt;&lt;div style=&quot;border-color: var(--border-color); font-size: 14px; text-align: left; line-height: 140%;&quot;&gt;&amp;nbsp;· Users Interact&lt;/div&gt;" style="text;html=1;strokeColor=none;fillColor=none;align=center;verticalAlign=middle;whiteSpace=wrap;rounded=0;fontSize=18;spacing=2;" parent="1" vertex="1">
                    <mxGeometry x="1210" y="1252" width="190" height="72" as="geometry"/>
                </mxCell>
                <mxCell id="606" value="Description" style="text;html=1;strokeColor=none;fillColor=none;align=left;verticalAlign=middle;whiteSpace=wrap;rounded=0;fontSize=16;fontStyle=1" parent="1" vertex="1">
                    <mxGeometry x="1120" y="1380" width="120" height="32" as="geometry"/>
                </mxCell>
                <mxCell id="607" value="" style="verticalLabelPosition=bottom;shadow=0;dashed=0;align=center;html=1;verticalAlign=top;strokeWidth=1;shape=mxgraph.mockup.markup.line;strokeColor=#999999;fontSize=14;" parent="1" vertex="1">
                    <mxGeometry x="1110" y="1349" width="340" height="22" as="geometry"/>
                </mxCell>
                <mxCell id="608" value="&lt;span style=&quot;&quot;&gt;Lorem ipsum dolor sit amet, consectetur adipisicing elit, sed do eiusmod tempor incididunt ut labore et dolore magna aliqua.&lt;/span&gt;&lt;span style=&quot;&quot;&gt;Lorem ipsum dolor sit amet, consectetur adipisicing elit, sed do eiusmod tempor incididunt ut labore et dolore magna aliqua.&lt;/span&gt;&lt;span style=&quot;&quot;&gt;Lorem ipsum dolor sit amet, consectetur adipisicing elit, sed do eiusmod tempor incididunt ut labore et dolore magna aliqua.&lt;/span&gt;&lt;span style=&quot;&quot;&gt;Lorem ipsum dolor sit amet, consectetur adipisicing elit, sed do eiusmod tempor incididunt ut labore et dolore magna aliqua.&lt;/span&gt;" style="text;html=1;strokeColor=none;fillColor=none;align=left;verticalAlign=middle;whiteSpace=wrap;rounded=0;fontSize=14;" parent="1" vertex="1">
                    <mxGeometry x="1120" y="1410" width="310" height="240" as="geometry"/>
                </mxCell>
                <mxCell id="609" value="" style="group" vertex="1" connectable="0" parent="1">
                    <mxGeometry x="210" y="590" width="850" height="70" as="geometry"/>
                </mxCell>
                <mxCell id="610" value="" style="rounded=0;whiteSpace=wrap;html=1;strokeColor=#000000;fillColor=none;" vertex="1" parent="609">
                    <mxGeometry width="850" height="70" as="geometry"/>
                </mxCell>
                <mxCell id="611" value="Gamestopia" style="text;strokeColor=none;fillColor=none;html=1;fontSize=24;fontStyle=1;verticalAlign=middle;align=center;" vertex="1" parent="609">
                    <mxGeometry x="15" y="15" width="160" height="40" as="geometry"/>
                </mxCell>
                <mxCell id="612" value="" style="group" vertex="1" connectable="0" parent="609">
                    <mxGeometry x="634" y="20" width="90" height="30" as="geometry"/>
                </mxCell>
                <mxCell id="613" value="" style="html=1;verticalLabelPosition=bottom;align=center;labelBackgroundColor=#ffffff;verticalAlign=top;strokeWidth=2;strokeColor=#000000;shadow=0;dashed=0;shape=mxgraph.ios7.icons.user;fillColor=none;" vertex="1" parent="612">
                    <mxGeometry width="30" height="30" as="geometry"/>
                </mxCell>
                <mxCell id="614" value="Hello,&lt;br&gt;Sign In" style="text;html=1;strokeColor=none;fillColor=none;align=left;verticalAlign=middle;whiteSpace=wrap;rounded=0;" vertex="1" parent="612">
                    <mxGeometry x="40" width="50" height="30" as="geometry"/>
                </mxCell>
                <mxCell id="615" value="" style="group" vertex="1" connectable="0" parent="609">
                    <mxGeometry x="528" y="20" width="80" height="30" as="geometry"/>
                </mxCell>
                <mxCell id="616" value="" style="html=1;verticalLabelPosition=bottom;align=center;labelBackgroundColor=#ffffff;verticalAlign=top;strokeWidth=2;strokeColor=#000000;shadow=0;dashed=0;shape=mxgraph.ios7.icons.globe;fontSize=15;fontColor=#000000;fillColor=none;" vertex="1" parent="615">
                    <mxGeometry width="30" height="30" as="geometry"/>
                </mxCell>
                <mxCell id="617" value="EN&amp;nbsp;" style="text;html=1;strokeColor=none;fillColor=none;align=left;verticalAlign=middle;whiteSpace=wrap;rounded=0;container=0;" vertex="1" parent="615">
                    <mxGeometry x="40" width="40" height="30" as="geometry"/>
                </mxCell>
                <mxCell id="618" value="" style="html=1;verticalLabelPosition=bottom;labelBackgroundColor=#ffffff;verticalAlign=top;shadow=0;dashed=0;strokeWidth=2;shape=mxgraph.ios7.misc.down;strokeColor=default;fontSize=15;fontColor=#000000;fillColor=none;container=0;" vertex="1" parent="615">
                    <mxGeometry x="63" y="14.120000000000005" width="8" height="3" as="geometry"/>
                </mxCell>
                <mxCell id="619" value="" style="group" vertex="1" connectable="0" parent="609">
                    <mxGeometry x="194" y="20.120000000000005" width="300" height="30" as="geometry"/>
                </mxCell>
                <mxCell id="620" value="" style="html=1;verticalLabelPosition=bottom;align=center;labelBackgroundColor=#ffffff;verticalAlign=top;strokeWidth=2;strokeColor=#000000;shadow=0;dashed=0;shape=mxgraph.ios7.icons.looking_glass;fontSize=15;fontColor=#000000;fillColor=none;" vertex="1" parent="619">
                    <mxGeometry x="270" y="4.939999999999998" width="20" height="20.12" as="geometry"/>
                </mxCell>
                <mxCell id="621" value="&amp;nbsp; Search" style="rounded=1;whiteSpace=wrap;html=1;strokeColor=#000000;fontSize=15;fontColor=#000000;fillColor=none;align=left;" vertex="1" parent="619">
                    <mxGeometry width="300" height="30" as="geometry"/>
                </mxCell>
                <mxCell id="622" value="" style="group" vertex="1" connectable="0" parent="609">
                    <mxGeometry x="750" y="20" width="87" height="30" as="geometry"/>
                </mxCell>
                <mxCell id="623" value="My Rentals" style="text;html=1;strokeColor=none;fillColor=none;align=left;verticalAlign=middle;whiteSpace=wrap;rounded=0;" vertex="1" parent="622">
                    <mxGeometry x="37" width="50" height="30" as="geometry"/>
                </mxCell>
                <mxCell id="624" value="" style="html=1;verticalLabelPosition=bottom;align=center;labelBackgroundColor=#ffffff;verticalAlign=top;strokeWidth=2;strokeColor=#000000;shadow=0;dashed=0;shape=mxgraph.ios7.icons.bookmark;" vertex="1" parent="622">
                    <mxGeometry width="22.5" height="30" as="geometry"/>
                </mxCell>
                <mxCell id="625" value="" style="group" vertex="1" connectable="0" parent="1">
                    <mxGeometry x="210" y="660" width="850" height="50" as="geometry"/>
                </mxCell>
                <mxCell id="626" value="" style="rounded=0;whiteSpace=wrap;html=1;strokeColor=default;fontColor=#000000;fillColor=none;" vertex="1" parent="625">
                    <mxGeometry width="850" height="50" as="geometry"/>
                </mxCell>
                <mxCell id="627" value="Trade-in" style="text;html=1;strokeColor=none;fillColor=none;align=center;verticalAlign=middle;whiteSpace=wrap;rounded=0;fontSize=17;" vertex="1" parent="625">
                    <mxGeometry x="294" y="10" width="100" height="30" as="geometry"/>
                </mxCell>
                <mxCell id="628" value="" style="group" vertex="1" connectable="0" parent="625">
                    <mxGeometry x="80" y="10" width="115" height="30" as="geometry"/>
                </mxCell>
                <mxCell id="629" value="All Games" style="text;html=1;strokeColor=none;fillColor=none;align=left;verticalAlign=middle;whiteSpace=wrap;rounded=0;fontSize=17;" vertex="1" parent="628">
                    <mxGeometry width="115" height="30" as="geometry"/>
                </mxCell>
                <mxCell id="630" value="" style="html=1;verticalLabelPosition=bottom;labelBackgroundColor=#ffffff;verticalAlign=top;shadow=0;dashed=0;strokeWidth=2;shape=mxgraph.ios7.misc.down;strokeColor=default;fontSize=15;fontColor=#000000;fillColor=none;container=0;" vertex="1" parent="628">
                    <mxGeometry x="95" y="13.5" width="8" height="3" as="geometry"/>
                </mxCell>
                <mxCell id="631" value="Pricing" style="text;html=1;strokeColor=none;fillColor=none;align=center;verticalAlign=middle;whiteSpace=wrap;rounded=0;fontSize=17;" vertex="1" parent="625">
                    <mxGeometry x="480" y="10" width="100" height="30" as="geometry"/>
                </mxCell>
                <mxCell id="632" value="How it works" style="text;html=1;strokeColor=none;fillColor=none;align=center;verticalAlign=middle;whiteSpace=wrap;rounded=0;fontSize=17;" vertex="1" parent="625">
                    <mxGeometry x="648.75" y="10" width="114" height="30" as="geometry"/>
                </mxCell>
                <mxCell id="633" value="" style="group" vertex="1" connectable="0" parent="1">
                    <mxGeometry x="1100" y="590" width="360" height="70" as="geometry"/>
                </mxCell>
                <mxCell id="634" value="" style="rounded=0;whiteSpace=wrap;html=1;strokeColor=default;fontSize=13;fontColor=#000000;fillColor=none;" vertex="1" parent="633">
                    <mxGeometry width="360" height="70" as="geometry"/>
                </mxCell>
                <mxCell id="635" value="Gamestopia" style="text;strokeColor=none;fillColor=none;html=1;fontSize=24;fontStyle=1;verticalAlign=middle;align=center;" vertex="1" parent="633">
                    <mxGeometry x="80" y="17.5" width="160" height="40" as="geometry"/>
                </mxCell>
                <mxCell id="636" value="" style="html=1;verticalLabelPosition=bottom;align=center;labelBackgroundColor=#ffffff;verticalAlign=top;strokeWidth=2;strokeColor=#000000;shadow=0;dashed=0;shape=mxgraph.ios7.icons.user;fillColor=none;" vertex="1" parent="633">
                    <mxGeometry x="260" y="20" width="30" height="30" as="geometry"/>
                </mxCell>
                <mxCell id="637" value="" style="html=1;verticalLabelPosition=bottom;labelBackgroundColor=#ffffff;verticalAlign=top;shadow=0;dashed=0;strokeWidth=2;shape=mxgraph.ios7.misc.options;fillColor=#222222;sketch=0;strokeColor=default;fontSize=13;fontColor=#000000;" vertex="1" parent="633">
                    <mxGeometry x="20" y="25" width="30" height="25" as="geometry"/>
                </mxCell>
                <mxCell id="638" value="" style="html=1;verticalLabelPosition=bottom;align=center;labelBackgroundColor=#ffffff;verticalAlign=top;strokeWidth=2;strokeColor=#000000;shadow=0;dashed=0;shape=mxgraph.ios7.icons.bookmark;" vertex="1" parent="633">
                    <mxGeometry x="310" y="20" width="22.5" height="30" as="geometry"/>
                </mxCell>
            </root>
        </mxGraphModel>
    </diagram>
</mxfile>